<svg xmlns="http://www.w3.org/2000/svg" viewBox="0 0 1000 500" fill="none">
  <!-- Simplified world map outline for background -->
  <g stroke="white" stroke-width="0.5" fill="none" opacity="0.3">
    <!-- North America -->
    <path d="M150 80 L200 70 L250 80 L280 100 L290 130 L280 160 L250 180 L220 200 L180 220 L150 250 L120 230 L100 200 L90 170 L100 140 L120 110 Z"/>
    <!-- Central America -->
    <path d="M180 220 L200 240 L210 270 L200 290 L180 280 L170 260 L175 240 Z"/>
    <!-- South America -->
    <path d="M200 290 L230 310 L260 340 L270 380 L260 420 L230 450 L200 460 L170 440 L160 400 L170 360 L180 320 L190 300 Z"/>
    <!-- Europe -->
    <path d="M450 90 L500 80 L540 90 L560 110 L550 140 L520 150 L490 145 L460 150 L440 140 L435 120 L440 100 Z"/>
    <!-- Africa -->
    <path d="M450 160 L500 150 L540 170 L560 200 L570 250 L560 300 L530 340 L490 360 L450 350 L420 310 L410 260 L420 210 L440 180 Z"/>
    <!-- Asia -->
    <path d="M560 80 L650 60 L750 70 L820 90 L860 120 L880 160 L870 200 L840 230 L800 240 L750 235 L700 220 L650 200 L600 180 L560 160 L550 120 Z"/>
    <!-- Middle East -->
    <path d="M540 170 L580 160 L620 180 L640 210 L620 240 L580 250 L550 230 L540 200 Z"/>
    <!-- India -->
    <path d="M680 200 L720 190 L750 210 L760 250 L740 290 L700 300 L670 280 L660 240 L665 215 Z"/>
    <!-- Southeast Asia -->
    <path d="M750 235 L800 220 L840 240 L860 280 L850 320 L810 340 L770 330 L750 300 L755 260 Z"/>
    <!-- Australia -->
    <path d="M800 360 L870 350 L920 370 L940 410 L920 450 L870 460 L820 450 L790 420 L785 380 Z"/>
    <!-- Japan -->
    <path d="M870 120 L890 100 L910 110 L915 140 L900 160 L880 155 L870 140 Z"/>
    <!-- UK & Ireland -->
    <path d="M440 100 L450 90 L460 95 L458 110 L450 115 L442 110 Z"/>
    <path d="M432 95 L438 90 L442 95 L440 102 L434 100 Z"/>
    <!-- New Zealand -->
    <path d="M950 420 L960 410 L970 420 L965 440 L955 445 L948 435 Z"/>
  </g>
</svg>
